<svg width="15" height="14" viewBox="0 0 15 14" fill="none" xmlns="http://www.w3.org/2000/svg">
<path d="M7.5 10.577L3.9615 7.0385L4.66925 6.31925L7 8.65V0H8V8.65L10.3307 6.31925L11.0385 7.0385L7.5 10.577ZM2.1155 14C1.65517 14 1.27083 13.8458 0.9625 13.5375C0.654167 13.2292 0.5 12.8448 0.5 12.3845V9.9615H1.5V12.3845C1.5 12.5385 1.56408 12.6796 1.69225 12.8077C1.82042 12.9359 1.9615 13 2.1155 13H12.8845C13.0385 13 13.1796 12.9359 13.3077 12.8077C13.4359 12.6796 13.5 12.5385 13.5 12.3845V9.9615H14.5V12.3845C14.5 12.8448 14.3458 13.2292 14.0375 13.5375C13.7292 13.8458 13.3448 14 12.8845 14H2.1155Z" fill="#181818"/>
</svg>
