<?xml version="1.0" encoding="UTF-8" standalone="no"?>
<svg
   viewBox="0 0 320 512"
   version="1.1"
   id="svg1"
   sodipodi:docname="mobile-phone.svg"
   inkscape:version="1.3.2 (091e20e, 2023-11-25, custom)"
   width="320"
   height="512"
   xmlns:inkscape="http://www.inkscape.org/namespaces/inkscape"
   xmlns:sodipodi="http://sodipodi.sourceforge.net/DTD/sodipodi-0.dtd"
   xmlns="http://www.w3.org/2000/svg"
   xmlns:svg="http://www.w3.org/2000/svg">
  <defs
     id="defs1" />
  <sodipodi:namedview
     id="namedview1"
     pagecolor="#ffffff"
     bordercolor="#000000"
     borderopacity="0.25"
     inkscape:showpageshadow="2"
     inkscape:pageopacity="0.0"
     inkscape:pagecheckerboard="0"
     inkscape:deskcolor="#d1d1d1"
     inkscape:zoom="1.5371094"
     inkscape:cx="57.250317"
     inkscape:cy="242.98856"
     inkscape:window-width="1920"
     inkscape:window-height="974"
     inkscape:window-x="-11"
     inkscape:window-y="-11"
     inkscape:window-maximized="1"
     inkscape:current-layer="g1" />
  <!--!Font Awesome Free 6.7.2 by @fontawesome - https://fontawesome.com License - https://fontawesome.com/license/free Copyright 2025 Fonticons, Inc.-->
  <g
     id="g1">
    <path
       id="path1"
       style="fill:none;fill-opacity:1;stroke:#5d15c1;stroke-width:11.9999;stroke-dasharray:none;stroke-opacity:1"
       d="m 61.999953,5.9999285 c -30.887485,0 -56.0000245,28.0273855 -56.0000245,62.5000215 v 375.00012 c 0,34.47262 25.1125395,62.5 56.0000245,62.5 H 258.00003 c 30.88748,0 56.00001,-28.02738 56.00001,-62.5 V 68.49995 c 0,-34.472636 -25.11253,-62.5000215 -56.00001,-62.5000215 z m 3.053958,6.3972495 H 254.94607 c 29.92475,0 54.25345,27.317665 54.25345,60.916921 V 438.81371 c 0,33.59926 -24.3287,60.91692 -54.25345,60.91692 H 65.053911 c -29.924725,0 -54.253445,-27.31766 -54.253445,-60.91692 V 73.314099 c 0,-33.599256 24.32872,-60.916921 54.253445,-60.916921 z" />
    <path
       id="rect3-7"
       style="fill:#000000;fill-opacity:1;stroke:none;stroke-width:2.30623;stroke-linecap:square;stroke-dasharray:none"
       d="m 229.06121,287.42349 -18.94199,-0.18737 m 0,0 c -2.67061,4.30799 -5.89778,8.25824 -9.58576,11.76074 -11.07964,10.52241 -26.3182,17.00374 -43.1188,17.00374 -34.20396,0 -61.931424,-26.86349 -61.931424,-60.0006 0,-33.13712 27.727464,-59.99911 61.931424,-59.99911 25.15737,0 44.31218,14.55022 53.45515,35.42245 h -9.68784 l 18.9344,30.45685 L 240,231.42334 h -9.60443 C 219.98687,202.02691 191.24201,181 157.41466,181 c -42.75494,0 -77.414661,33.5786 -77.414661,75 0,41.42139 34.659721,75 77.414661,75 25.7351,0 49.59797,-12.16571 63.96865,-30.99104 2.9944,-3.92261 5.57669,-8.13436 7.6779,-12.58547"
       sodipodi:nodetypes="cccsssscccccssssc" />
  </g>
</svg>
