<svg width="17" height="16" viewBox="0 0 17 16" fill="none" xmlns="http://www.w3.org/2000/svg">
<path d="M12.5 4.61548V1.61548H4.50003V4.61548H3.50003V0.615234H13.5V4.61548H12.5ZM14.1155 8.11548C14.3989 8.11548 14.6364 8.01965 14.828 7.82798C15.0197 7.63632 15.1155 7.39882 15.1155 7.11548C15.1155 6.83215 15.0197 6.59465 14.828 6.40298C14.6364 6.21132 14.3989 6.11548 14.1155 6.11548C13.8322 6.11548 13.5947 6.21132 13.403 6.40298C13.2114 6.59465 13.1155 6.83215 13.1155 7.11548C13.1155 7.39882 13.2114 7.63632 13.403 7.82798C13.5947 8.01965 13.8322 8.11548 14.1155 8.11548ZM12.5 15V10.4615H4.50003V15H12.5ZM13.5 16H3.50003V12H0.0770264V6.61548C0.0770264 6.04882 0.269276 5.57382 0.653776 5.19048C1.03844 4.80715 1.51286 4.61548 2.07703 4.61548H14.923C15.4897 4.61548 15.9647 4.80715 16.348 5.19048C16.7314 5.57382 16.923 6.04882 16.923 6.61548V12H13.5V16ZM15.923 11V6.61548C15.923 6.33215 15.8272 6.09465 15.6355 5.90298C15.4439 5.71132 15.2064 5.61548 14.923 5.61548H2.07703C1.79369 5.61548 1.55619 5.71132 1.36453 5.90298C1.17286 6.09465 1.07703 6.33215 1.07703 6.61548V11H3.50003V9.46148H13.5V11H15.923Z" fill="#181818"/>
</svg>
